:version 1.10
:name ASF
:units
  mass 1
  length 1
  angle deg
:documentation
  ASF file generated by Kaydara
:root
  axis xyz
  order  tx ty tz rx ry rz
  position 0 0 0
  orientation 0 0 0
:bonedata
  begin
    id 1
    name RightUpLegDummy
    direction -1 2.30186e-007 8.31532e-007
    length 4.04083
    axis 0 0 0 xyz
  end
  begin
    id 2
    name RightUpLeg
    direction -0.000919234 -0.999985 0.00544864
    length 17.4221
    axis -3.80308 -0.00076134 -0.0523649 xyz
    dof rx ry rz
  end
  begin
    id 3
    name RightLeg
    direction -0.000919271 -0.999984 -0.00555045
    length 17.1239
    axis 4.00314 0.0181274 -0.183583 xyz
    dof rx ry rz
  end
  begin
    id 4
    name RightFoot
    direction -2.57843e-005 -4.04509e-007 1
    length 6.72091
    axis 8.18909e-005 -0.122003 -0.403008 xyz
    dof rx ry rz
  end
  begin
    id 5
    name RightToes
    direction 0.00116825 -0.014069 0.9999
    length 3.85082
    axis 0.000514414 0.540638 -0.356797 xyz
    dof rx ry rz
  end
  begin
    id 6
    name SpineDummy
    direction 0.0168869 0.966876 -0.254689
    length 6.99894
    axis 0 0 0 xyz
  end
  begin
    id 7
    name Spine
    direction -0.0132008 0.999903 0.00446247
    length 11.1999
    axis -0.00148109 0.00725429 0.756411 xyz
    dof rx ry rz
  end
  begin
    id 8
    name Spine1
    direction 0 0 0
    length 0
    axis -0.000934958 0.0245693 1.46543 xyz
    dof rx ry rz
  end
  begin
    id 9
    name HEadDummy
    direction -0.0255732 0.999672 0.00128215
    length 3.43865
    axis -0.000934958 0.0245693 1.46543 xyz
  end
  begin
    id 10
    name HEad
    direction -0.0472656 0.980052 0.19304
    length 5.12695
    axis -0.000934954 0.0245693 1.46543 xyz
    dof rx ry rz
  end
  begin
    id 11
    name LeftShoulder1Dummy
    direction 0.953098 0.301717 -0.023914
    length 3.68488
    axis -0.000934958 0.0245693 1.46543 xyz
  end
  begin
    id 12
    name LeftShoulder1
    direction 0.962466 0.271167 0.0112566
    length 3.13809
    axis -0.000934958 0.0245693 1.46543 xyz
    dof rx ry rz
  end
  begin
    id 13
    name LeftArm
    direction 0.999943 0.00455037 -0.00961766
    length 11.3419
    axis -23.1648 0.685459 1.22814 xyz
    dof rx ry rz
  end
  begin
    id 14
    name LeftForeArm
    direction 0.999332 0.0131969 0.0340885
    length 8.70632
    axis -9.90633 0.618216 0.0826942 xyz
    dof rx ry rz
  end
  begin
    id 15
    name LeftHand
    direction 0.994373 -0.0366703 0.0993905
    length 5.32135
    axis 0.00675269 0.680415 0.445699 xyz
    dof rx ry rz
  end
  begin
    id 16
    name RightShoulderDummy
    direction -0.967298 0.252589 -0.0230903
    length 3.68488
    axis -0.000934958 0.0245693 1.46543 xyz
  end
  begin
    id 17
    name RightShoulder
    direction -0.975062 0.221602 0.0120823
    length 3.13809
    axis 0.216257 0.0246515 1.45863 xyz
    dof rx ry rz
  end
  begin
    id 18
    name RightArm
    direction -0.99886 -0.00851186 -0.0469687
    length 10.3947
    axis -23.196 0.23503 -0.532632 xyz
    dof rx ry rz
  end
  begin
    id 19
    name RightForeArm
    direction -0.99909 0.00114866 0.0426317
    length 8.68355
    axis -9.91764 -0.134943 0.610517 xyz
    dof rx ry rz
  end
  begin
    id 20
    name RightHand
    direction -0.992888 -0.0489538 0.10852
    length 5.28593
    axis -0.00275396 -0.197403 0.246414 xyz
    dof rx ry rz
  end
  begin
    id 21
    name LeftUpLegDummy
    direction 1 -2.30186e-007 -8.31532e-007
    length 4.04083
    axis 0 0 0 xyz
  end
  begin
    id 22
    name LeftUpLeg
    direction -0.000920097 -1 2.79241e-006
    length 17.4221
    axis -3.48782 0.00143434 -0.0532288 xyz
    dof rx ry rz
  end
  begin
    id 23
    name LeftLeg
    direction -0.000920097 -1 2.7912e-006
    length 17.1239
    axis 3.68162 -0.00806512 -0.0529896 xyz
    dof rx ry rz
  end
  begin
    id 24
    name LeftFoot
    direction -2.57845e-005 -3.987e-007 1
    length 6.72091
    axis 3.02372e-005 -0.00147829 -0.214229 xyz
    dof rx ry rz
  end
  begin
    id 25
    name LeftToes
    direction 0.00813577 -0.00488255 0.999955
    length 3.85048
    axis 3.89895e-005 -0.0014783 -0.214229 xyz
    dof rx ry rz
  end
:hierarchy
  begin
    root RightUpLegDummy SpineDummy LeftUpLegDummy
    RightUpLegDummy RightUpLeg
    RightUpLeg RightLeg
    RightLeg RightFoot
    RightFoot RightToes
    SpineDummy Spine
    Spine Spine1
    Spine1 HEadDummy LeftShoulder1Dummy RightShoulderDummy
    HEadDummy HEad
    LeftShoulder1Dummy LeftShoulder1
    LeftShoulder1 LeftArm
    LeftArm LeftForeArm
    LeftForeArm LeftHand
    RightShoulderDummy RightShoulder
    RightShoulder RightArm
    RightArm RightForeArm
    RightForeArm RightHand
    LeftUpLegDummy LeftUpLeg
    LeftUpLeg LeftLeg
    LeftLeg LeftFoot
    LeftFoot LeftToes
  end

:SAMPLES-PER-SECOND 30
:FULLY-SPECIFIED
:DEGREES
123
root  -41.7734 34.7945 21.9039 -173.556 56.2905 179.407
RightUpLeg  0.450118 -19.9159 -6.39187
RightLeg  2.0842 -5.29795 0.148962
RightFoot  7.94541 0.0767221 -0.6164
RightToes  -32.9601 -0.165569 -0.272684
Spine  -4.56775 2.02274 -1.70478
Spine1  -8.53572 4.17052 -3.11984
HEad  -62.5261 -9.99221 1.21083
LeftShoulder1  -1.94126e-019 -3.10601e-018 -2.51263e-017
LeftArm  -7.00232 -1.27228 -62.3716
LeftForeArm  172.426 -61.1433 -162.025
LeftHand  -1.09667 -1.70504 18.0428
RightShoulder  -4.96962e-017 0 -2.36833e-017
RightArm  3.59716 7.29735 62.1021
RightForeArm  -165.931 57.1953 166.374
RightHand  -0.935136 0.809106 -17.5482
LeftUpLeg  -0.950811 1.58047 4.36034
LeftLeg  1.50518 14.2829 -0.537445
LeftFoot  7.88209 -0.138076 2.16557
LeftToes  -26.2264 2.32378e-006 -5.43956e-008
124
root  -41.7997 34.8 21.6899 -173.992 56.508 179.196
RightUpLeg  0.445302 -19.3395 -6.89897
RightLeg  2.79685 -5.69941 0.0895552
RightFoot  7.90488 0.0794431 -0.665454
RightToes  -33.1461 -0.166175 -0.273227
Spine  -4.02205 1.57106 -1.37874
Spine1  -7.56299 3.17445 -2.42385
HEad  -63.1676 -9.10521 0.672018
LeftShoulder1  -1.94126e-019 -3.10601e-018 -2.51263e-017
LeftArm  -6.38273 10.5658 -64.2539
LeftForeArm  165.404 -68.8729 -153.966
LeftHand  -1.03253 -1.78893 16.8195
RightShoulder  -4.96962e-017 0 -2.36833e-017
RightArm  9.73752 -3.83766 63.9468
RightForeArm  -154.736 58.0688 166.738
RightHand  -1.55901 4.99896 -17.5807
LeftUpLeg  -0.803624 1.75055 3.93161
LeftLeg  2.15063 14.3558 -0.380026
LeftFoot  7.24521 -0.116861 2.00723
LeftToes  -25.678 2.32378e-006 -5.43956e-008
125
root  -41.8291 34.7999 21.502 -174.47 56.6424 178.931
RightUpLeg  0.523367 -19.1971 -7.40012
RightLeg  3.2838 -5.91397 0.0428214
RightFoot  7.92872 0.079931 -0.685792
RightToes  -33.4627 -0.166931 -0.273912
Spine  -3.59129 1.09918 -1.10411
Spine1  -6.85979 2.18284 -1.75202
HEad  -63.1739 -7.88167 -0.1804
LeftShoulder1  -1.94126e-019 -3.10601e-018 -2.51263e-017
LeftArm  -8.93354 19.199 -67.836
LeftForeArm  125.102 -79.6595 -112.246
LeftHand  -0.792995 -1.82295 12.9306
RightShoulder  -4.96962e-017 0 -2.36833e-017
RightArm  9.9975 -14.4624 66.3802
RightForeArm  -152.095 65.8059 161.829
RightHand  -1.47038 5.50728 -15.8695
LeftUpLeg  -0.795352 1.69243 3.50146
LeftLeg  2.96581 14.5188 -0.179914
LeftFoot  6.68802 -0.100716 1.88512
LeftToes  -25.2191 2.32378e-006 -5.43956e-008
126
root  -41.8207 34.7942 21.3285 -174.962 57.2436 178.56
RightUpLeg  0.652271 -18.5578 -7.91111
RightLeg  3.434 -5.88409 0.0272325
RightFoot  7.96805 0.077964 -0.672107
RightToes  -33.5092 -0.167706 -0.274611
Spine  -3.3441 0.769618 -0.946473
Spine1  -6.51181 1.4861 -1.32831
HEad  -61.6513 -6.73392 -1.27636
LeftShoulder1  -1.94126e-019 -3.10601e-018 -2.51263e-017
LeftArm  -14.4047 25.5857 -72.0137
LeftForeArm  53.7678 -74.8795 -37.9911
LeftHand  -0.30508 -0.174243 6.43515
RightShoulder  -4.96962e-017 0 -2.36833e-017
RightArm  3.51633 -22.5273 70.9208
RightForeArm  -179.322 78.55 135.058
RightHand  -1.00528 2.97358 -14.1263
LeftUpLeg  -0.437938 1.98061 3.04607
LeftLeg  3.15442 14.8158 -0.135295
LeftFoot  6.4069 -0.0944898 1.84969
LeftToes  -24.6752 2.32378e-006 -5.43956e-008
127
root  -41.8219 34.7739 21.2103 -175.278 57.9559 178.278
RightUpLeg  0.559779 -18.2722 -8.28378
RightLeg  3.62444 -5.48284 0.00722602
RightFoot  7.93618 0.0718857 -0.598584
RightToes  -33.7073 -0.168464 -0.275293
Spine  -3.20097 0.240994 -0.981126
Spine1  -6.33998 0.417763 -1.23476
HEad  -59.3546 -5.01193 -1.79149
LeftShoulder1  -1.94126e-019 -3.10601e-018 -2.51263e-017
LeftArm  -18.053 32.4061 -74.3495
LeftForeArm  39.1251 -63.5326 -18.9329
LeftHand  -0.37021 0.0823912 8.15457
RightShoulder  -4.96962e-017 0 -2.36833e-017
RightArm  -8.78517 -26.0283 77.5381
RightForeArm  73.0931 74.4889 31.6799
RightHand  -0.551159 -0.714257 -13.6594
LeftUpLeg  0.0948629 2.07483 2.67384
LeftLeg  2.70057 15.4076 -0.261092
LeftFoot  6.36295 -0.093938 1.91119
LeftToes  -24.4185 2.32378e-006 -5.43956e-008
128
root  -41.7937 34.7 21.1901 -174.827 59.5675 178.279
RightUpLeg  -0.609916 -17.1626 -8.12118
RightLeg  4.35744 -5.07924 -0.05808
RightFoot  7.36235 0.0622883 -0.471564
RightToes  -33.9087 -0.16917 -0.275926
Spine  -3.22311 -0.135049 -0.90973
Spine1  -6.46165 -0.294092 -0.979893
HEad  -58.2506 -3.40542 -1.62689
LeftShoulder1  -1.94126e-019 -3.10601e-018 -2.51263e-017
LeftArm  -24.0856 40.6918 -77.0895
LeftForeArm  28.0881 -57.315 -15.1063
LeftHand  -0.376736 -0.45518 7.58101
RightShoulder  -4.96962e-017 0 -2.36833e-017
RightArm  -23.3845 -26.668 82.2784
RightForeArm  49.8819 55.1853 11.9698
RightHand  -0.137074 -4.36984 -14.1173
LeftUpLeg  0.185312 3.43116 2.60948
LeftLeg  2.30751 15.6489 -0.371087
LeftFoot  6.13539 -0.0872863 1.87837
LeftToes  -24.7736 2.32378e-006 -5.43956e-008
129
root  -41.7316 34.581 21.1872 -173.58 61.4551 179.081
RightUpLeg  -2.00211 -16.6307 -7.62373
RightLeg  5.33122 -3.74364 -0.106193
RightFoot  6.61842 0.0452813 -0.233326
RightToes  -34.1107 -0.169789 -0.276481
Spine  -3.24509 0.121073 -0.65785
Spine1  -6.53308 0.329684 -0.523685
HEad  -58.4401 -3.65967 -0.66399
LeftShoulder1  -1.94126e-019 -3.10601e-018 -2.51263e-017
LeftArm  -31.6098 48.0166 -81.2553
LeftForeArm  21.2922 -55.3737 -14.4885
LeftHand  -0.373495 -1.34154 6.59643
RightShoulder  -4.96962e-017 0 -2.36833e-017
RightArm  -34.0485 -29.1958 82.1095
RightForeArm  42.4082 41.684 7.19047
RightHand  0.0410271 -5.79831 -15.9566
LeftUpLeg  -0.0911305 5.35071 2.98807
LeftLeg  2.70519 15.5833 -0.262752
LeftFoot  5.34039 -0.0692245 1.64579
LeftToes  -25.1436 2.32378e-006 -5.43956e-008
130
root  -41.6614 34.4996 21.231 -171.965 62.9756 -179.696
RightUpLeg  -2.89845 -17.1654 -6.93188
RightLeg  5.42323 -1.85983 -0.055316
RightFoot  6.53398 0.030102 -0.0180034
RightToes  -34.7565 -0.170286 -0.276924
Spine  -3.37907 0.642463 -0.449554
Spine1  -6.75125 1.42438 -0.198307
HEad  -58.0162 -4.98659 0.0188889
LeftShoulder1  -1.94126e-019 -3.10601e-018 -2.51263e-017
LeftArm  -37.1593 53.8899 -84.9086
LeftForeArm  24.9807 -55.1503 -13.9948
LeftHand  -0.457613 -2.36116 7.0625
RightShoulder  -4.96962e-017 0 -2.36833e-017
RightArm  -37.4305 -34.3856 79.5992
RightForeArm  31.0391 34.5964 5.87735
RightHand  0.502586 -8.97176 -16.8936
LeftUpLeg  -0.986089 6.97363 3.6063
LeftLeg  4.27656 15.3962 0.157324
LeftFoot  4.24268 -0.046436 1.31672
LeftToes  -25.912 2.32378e-006 -5.43956e-008
131
root  -41.622 34.4613 21.3177 -170.161 63.2921 -178.606
RightUpLeg  -3.67357 -18.3287 -6.13689
RightLeg  5.11296 -0.4018 -0.00899887
RightFoot  6.70771 0.0195016 0.131617
RightToes  -35.0202 -0.170625 -0.277226
Spine  -3.61436 0.760818 -0.355999
Spine1  -7.15413 1.65227 -0.0735976
HEad  -56.5291 -6.11857 0.362648
LeftShoulder1  -1.94126e-019 -3.10601e-018 -2.51263e-017
LeftArm  -39.7417 58.1663 -86.9394
LeftForeArm  26.2484 -54.9562 -13.7542
LeftHand  -0.620212 -1.0803 11.2694
RightShoulder  -4.96962e-017 0 -2.36833e-017
RightArm  -35.4406 -40.2274 76.6107
RightForeArm  25.4909 30.929 5.2721
RightHand  0.551418 -9.55366 -15.9714
LeftUpLeg  -2.24212 7.9678 4.20372
LeftLeg  5.33272 14.697 0.418226
LeftFoot  3.692 -0.0318371 1.10676
LeftToes  -26.6829 2.32378e-006 -5.43956e-008
132
root  -41.6395 34.4469 21.3986 -169.586 62.6393 -178.797
RightUpLeg  -4.31336 -19.2038 -5.87371
RightLeg  5.02853 -0.0930549 -0.00117756
RightFoot  6.62774 0.0179139 0.152229
RightToes  -34.9908 -0.170772 -0.277355
Spine  -3.66718 0.485452 -0.495593
Spine1  -7.20244 1.0304 -0.335768
HEad  -55.2205 -6.93828 0.609079
LeftShoulder1  -1.94126e-019 -3.10601e-018 -2.51263e-017
LeftArm  -40.1227 60.1802 -86.495
LeftForeArm  24.0318 -53.8727 -13.3398
LeftHand  -0.553062 -0.0253777 11.9314
RightShoulder  -4.96962e-017 0 -2.36833e-017
RightArm  -34.5642 -44.6321 74.6426
RightForeArm  31.7234 28.1869 4.29283
RightHand  0.188989 -7.00173 -14.9792
LeftUpLeg  -3.45514 7.80966 4.18359
LeftLeg  5.83491 14.2872 0.530781
LeftFoot  3.64246 -0.02792 1.05502
LeftToes  -26.6837 2.32378e-006 -5.43956e-008
